<?xml version="1.0" encoding="utf-8"?>
<!-- Generator: Adobe Illustrator 23.0.1, SVG Export Plug-In . SVG Version: 6.00 Build 0)  -->
<svg version="1.1" id="Layer_1" xmlns="http://www.w3.org/2000/svg" xmlns:xlink="http://www.w3.org/1999/xlink" x="0px" y="0px"
	 viewBox="0 0 1932 1194.5" style="enable-background:new 0 0 1932 1194.5;" xml:space="preserve">
<style type="text/css">
	.st0{fill:#C9952C;}
	.st1{fill:#650D37;}
	.st2{fill:#ABCB77;}
	.st3{fill:#2C5B6B;}
	.st4{fill:#FEFEFE;}
	.st5{fill:#52534C;}
	.st6{fill:#96989A;}
	.st7{fill-rule:evenodd;clip-rule:evenodd;fill:#96989A;}
</style>
<g id="Layer_x0020_1">
	<g id="_1715976930368">
		<g>
			<g>
				<g>
					<g>
						<polygon class="st0" points="451,450.7 0.4,450.7 0.4,0 451,0 						"/>
						<polygon class="st1" points="917.9,450.7 467.3,450.7 467.3,0 917.9,0 						"/>
						<polygon class="st2" points="917.9,917.6 467.3,917.6 467.3,466.9 917.9,466.9 						"/>
						<polygon class="st3" points="451,917.6 0.4,917.6 0.4,466.9 451,466.9 						"/>
					</g>
					<path class="st4" d="M457.4,27.1c199.2,0,363,127.5,363,338.5c0,210.9-163.8,338.5-363,338.5c-199.2,0-363-127.5-363-338.5
						C94.4,154.6,258.2,27.1,457.4,27.1L457.4,27.1z M888.1,739.3L888.1,739.3c-72.6,95.2-113.8,151.1-242.3,151.1
						c-145.2,0-247.2-141.3-393.4-141.3c-31.4,0-61.8,11.8-89.3,26.5L149.3,760c45.1-28.4,86.3-40.2,139.3-40.2
						c144.2,0,293.3,102,406.2,102c84.3,0,125.6-35.3,176.6-98.1L888.1,739.3L888.1,739.3z M457.4,668.7L457.4,668.7
						c162.9,0,259-143.2,259-303.2c0-159.9-96.1-303.2-259-303.2c-162.9,0-259,143.2-259,303.2C198.4,525.5,294.5,668.7,457.4,668.7
						z"/>
				</g>
				<path class="st5" d="M1201.5,645.7l-14.4,13.6c-10.4-10.2-21.8-17.9-34.1-23.1c-12.4-5.3-24.4-7.9-36.2-7.9
					c-14.6,0-28.5,3.6-41.7,10.7c-13.2,7.2-23.5,16.8-30.7,29.1c-7.3,12.2-10.9,25.2-10.9,38.8c0,14,3.7,27.2,11.2,39.9
					c7.5,12.6,17.9,22.4,31.1,29.6c13.3,7.2,27.7,10.8,43.5,10.8c19.1,0,35.3-5.4,48.6-16.1c13.2-10.7,21.1-24.7,23.5-41.8h-59.2
					v-18.1h80.1c-0.2,28.6-8.7,51.4-25.6,68.3c-16.9,16.9-39.5,25.3-67.9,25.3c-34.4,0-61.6-11.7-81.7-35.1
					c-15.4-18-23.1-38.8-23.1-62.5c0-17.5,4.4-33.9,13.3-49.1c8.9-15.1,21-27,36.4-35.5c15.5-8.5,32.9-12.8,52.4-12.8
					c15.8,0,30.6,2.8,44.6,8.5C1174.6,624.2,1188.2,633.2,1201.5,645.7L1201.5,645.7z M1301.1,410.9l48.4,61.2h-40.3l-33.2-42
					c-26.4,16.2-56.3,24.3-89.7,24.3c-48.3,0-89.1-16.6-122.3-49.6c-33.2-33-49.9-73-49.9-119.9c0-31.3,7.6-60.3,22.8-87
					c15.2-26.7,36-47.7,62.1-62.7c26.2-15,55-22.6,86.4-22.6c48.3,0,89,16.5,122.2,49.4c33.2,33,49.7,73.5,49.7,121.6
					c0,25.1-4.5,48-13.6,68.8C1334.5,373.3,1320.3,392.7,1301.1,410.9L1301.1,410.9z M1281,385.5c28.5-27.7,42.7-61.7,42.7-102.1
					c0-25.8-6-49.2-18.1-70c-12.1-20.9-29.1-37.6-50.9-50.1c-21.9-12.5-45-18.8-69.3-18.8c-24.4,0-47.4,6.2-69,18.7
					c-21.6,12.5-38.5,29.4-50.6,50.7c-12.2,21.3-18.2,45-18.2,71.2c0,38.6,13.4,71.2,40.2,97.8c26.8,26.7,59.2,40,97.2,40
					c25.9,0,49.4-6.1,70.6-18.4l-73.3-92.6h40.3L1281,385.5L1281,385.5z M1412.3,120.8h186.3v31.7h-153.7v102h152.3v31.7h-152.3
					v128.3h152.3v31.7h-184.9V120.8z M1657.3,446.3V120.8h67.5c48.7,0,84,3.9,106,11.7c31.6,11.1,56.3,30.2,74,57.6
					c17.8,27.3,26.7,59.8,26.7,97.5c0,32.6-7,61.3-21.2,86c-14,24.8-32.4,43.1-54.8,54.9c-22.5,11.8-54.1,17.7-94.7,17.7
					L1657.3,446.3L1657.3,446.3z M1688.6,415.5h37.5c44.9,0,75.9-2.8,93.3-8.4c24.4-8,43.7-22.3,57.6-43c14-20.8,20.9-46.1,20.9-76
					c0-31.4-7.6-58.2-22.7-80.5c-15.1-22.3-36.3-37.6-63.3-45.8c-20.3-6.2-53.8-9.3-100.4-9.3h-23V415.5z M1252.8,614.6h37.1
					c20.6,0,34.6,0.9,42,2.5c11.1,2.5,20,7.9,26.9,16.2c6.9,8.3,10.4,18.5,10.4,30.6c0,10.1-2.4,19-7.1,26.6
					c-4.7,7.7-11.5,13.4-20.4,17.4c-8.8,3.9-21.1,5.9-36.7,6l66.8,86.3h-22.8l-66.8-86.3h-10.7v86.3h-18.6L1252.8,614.6
					L1252.8,614.6z M1271.4,632.7v63.1l32.1,0.3c12.4,0,21.6-1.2,27.6-3.5s10.6-6.1,14-11.3c3.3-5.2,5-10.9,5-17.4
					c0-6.2-1.7-11.9-5.1-17c-3.4-5.1-7.8-8.7-13.3-10.9c-5.5-2.2-14.6-3.3-27.4-3.3L1271.4,632.7L1271.4,632.7z M1501.5,610
					c28.1,0,51.6,9.4,70.5,28.1c18.9,18.7,28.4,41.8,28.4,69.2c0,27.2-9.4,50.2-28.3,69.1c-18.9,18.9-41.9,28.4-69.1,28.4
					c-27.5,0-50.7-9.4-69.6-28.3c-18.9-18.8-28.4-41.6-28.4-68.4c0-17.8,4.3-34.3,12.9-49.6c8.6-15.2,20.4-27.1,35.3-35.8
					C1468,614.3,1484.1,610,1501.5,610L1501.5,610z M1502.3,628.1c-13.7,0-26.7,3.6-39,10.7c-12.3,7.2-21.9,16.8-28.8,28.9
					c-6.9,12.1-10.3,25.6-10.3,40.5c0,22,7.6,40.6,22.9,55.8c15.3,15.2,33.7,22.8,55.3,22.8c14.4,0,27.7-3.5,40-10.5
					c12.3-7,21.8-16.5,28.7-28.6s10.3-25.6,10.3-40.4c0-14.7-3.4-28-10.3-39.9c-6.8-11.9-16.5-21.4-29-28.6
					C1529.5,631.7,1516.3,628.1,1502.3,628.1L1502.3,628.1z M1642.7,614.6h18.6v112.1c0,13.3,0.3,21.6,0.8,24.9
					c0.9,7.3,3.1,13.4,6.4,18.4c3.4,4.9,8.5,9,15.5,12.4c7,3.3,14,5,21.1,5c6.1,0,12-1.3,17.7-3.9c5.6-2.6,10.3-6.2,14.1-10.9
					c3.8-4.6,6.5-10.2,8.3-16.8c1.2-4.7,1.9-14.4,1.9-29V614.6h18.6v112c0,16.6-1.6,30-4.9,40.2c-3.2,10.2-9.7,19.1-19.4,26.7
					c-9.7,7.6-21.5,11.4-35.3,11.4c-15,0-27.8-3.6-38.5-10.7c-10.7-7.1-17.9-16.6-21.5-28.4c-2.3-7.2-3.4-20.3-3.4-39.1
					L1642.7,614.6L1642.7,614.6z M1815.5,614.6h37c21.2,0,35.5,0.9,43,2.8c10.6,2.6,19.3,8,26,16.1c6.8,8.1,10.1,18.3,10.1,30.6
					c0,12.4-3.3,22.5-9.9,30.6c-6.5,8-15.6,13.4-27.1,16.2c-8.4,2-24.2,3-47.2,3h-13.3v86.3h-18.6V614.6L1815.5,614.6z
					 M1834.1,632.7v63.1l31.4,0.4c12.7,0,22-1.2,27.9-3.5c5.9-2.3,10.6-6,13.9-11.2c3.4-5.2,5-11,5-17.4c0-6.2-1.7-11.9-5-17.1
					c-3.4-5.2-7.8-8.8-13.4-11c-5.5-2.2-14.5-3.3-27.1-3.3H1834.1L1834.1,632.7z"/>
			</g>
			<path class="st6" d="M17.3,1067.7h12l-1.9,13.8c10.6-10.7,22.6-16,36.2-16c12.5,0,22.7,4,30.6,12c8,8,11.9,18.3,11.9,30.8
				c0,14.5-5.2,26.9-15.5,37.3c-10.3,10.4-22.5,15.6-36.6,15.6c-7.6,0-14.3-1.6-20-4.8c-5.8-3.2-10.7-8.2-14.7-14.9l-6.8,50.8H0.4
				C0.4,1192.3,17.3,1067.7,17.3,1067.7z M62.3,1076.1c-7.5,0-14.3,1.8-20.5,5.3c-6.2,3.5-11.1,8.6-14.8,15.3
				c-3.6,6.6-5.4,13.9-5.4,21.7c0,9.4,3,17.1,9,23.1c6,5.9,13.7,8.9,23.2,8.9c11.2,0,20.8-4,28.8-12.1s11.9-18,11.9-29.8
				c0-9.7-3-17.4-8.9-23.4C79.7,1079.1,71.9,1076.1,62.3,1076.1L62.3,1076.1z M150.2,1067.7h11.6l-1.5,11.4c3.2-4.3,7-7.6,11.4-10
				c4.5-2.4,9-3.6,13.7-3.6c3.3,0,6.8,0.8,10.4,2.3l-5.5,10.7c-2.9-1.2-5.4-1.7-7.4-1.7c-4.1,0-8.2,1.4-12.2,4.2
				c-4,2.8-7.3,7-9.8,12.4c-2.5,5.4-4.6,14.4-6.3,26.9l-5.3,38.7h-11.4L150.2,1067.7L150.2,1067.7z M270,1065.5
				c7.8,0,15,1.9,21.4,5.5c6.5,3.7,11.6,8.9,15.2,15.5c3.6,6.6,5.5,14.1,5.5,22.5c0,9.5-2.3,18.4-7,26.6
				c-4.7,8.2-10.9,14.5-18.8,18.9c-7.8,4.5-16.7,6.7-26.6,6.7c-12.3,0-22.4-4-30.3-12c-7.9-8-11.9-18.2-11.9-30.6
				c0-9.7,2.3-18.6,7-26.9c4.7-8.2,11-14.6,19.1-19.3C251.7,1067.8,260.5,1065.5,270,1065.5L270,1065.5z M269.8,1076.6
				c-7.3,0-14.1,1.8-20.6,5.4c-6.4,3.6-11.3,8.6-14.8,14.9c-3.5,6.4-5.2,13.3-5.2,21c0,9.6,3,17.4,8.9,23.4c6,6,13.6,9,23.1,9
				c7.3,0,14-1.7,20-5.2c6-3.5,10.7-8.5,14.3-15.1c3.5-6.6,5.3-13.6,5.3-21.2c0-6.3-1.3-11.9-4-16.8c-2.6-4.9-6.4-8.7-11.2-11.4
				C280.8,1078,275.5,1076.6,269.8,1076.6L269.8,1076.6z M352.1,1067.7h12l23,66.8l38.5-66.8h12.7l-52.6,91.3h-2.2L352.1,1067.7
				L352.1,1067.7z M487.4,1030.2c2.6,0,4.7,0.9,6.6,2.7c1.8,1.9,2.7,4,2.7,6.6c0,2.6-0.9,4.8-2.7,6.6c-1.9,1.8-4,2.7-6.6,2.7
				c-2.6,0-4.8-0.9-6.6-2.7c-1.8-1.8-2.7-4-2.7-6.6c0-2.6,0.9-4.8,2.7-6.6C482.6,1031.2,484.8,1030.2,487.4,1030.2z M478.2,1067.7
				h11.1l-12,91.3h-11.5L478.2,1067.7z M536.8,1067.7h11.3l-1.9,14.3c9.3-11,20.1-16.6,32.4-16.6c9.4,0,17.1,2.9,22.9,8.6
				c5.8,5.8,8.7,13.5,8.7,23.3c0,3.9-0.6,10.5-1.9,19.7l-5.7,41.9h-11.4l5.7-41.9c1.2-8.9,1.8-15.6,1.8-19.8
				c0-6.4-1.9-11.5-5.8-15.4c-3.9-3.9-9-5.8-15.3-5.8c-6.2,0-11.9,1.6-17.2,4.7c-5.3,3.2-9.5,7.4-12.4,12.9
				c-2.9,5.4-5.2,14-6.7,25.8l-5.2,39.4h-11.5L536.8,1067.7L536.8,1067.7z M741.1,1067.7h11.5l-10.5,77.2
				c-1.7,12.4-3.7,21.1-6.1,26.1c-3.3,6.8-8.8,12.5-16.4,16.9c-7.7,4.4-16.7,6.6-27.2,6.6c-10.3,0-19.1-2.1-26.3-6.3
				c-7.2-4.2-12.7-10.2-16.5-18.1l10.5-3.8c6.4,11.6,17.2,17.4,32.4,17.4c8,0,15-1.6,20.8-4.8c5.9-3.2,10.1-7.4,12.6-12.5
				c1.5-3.1,3.1-9.7,4.6-20l0.5-3.8c-10,10.9-22.1,16.4-36.3,16.4c-12.6,0-22.7-3.8-30.4-11.5c-7.6-7.7-11.5-17.7-11.5-30
				c0-9,2.3-17.6,7-25.5c4.7-8,11.1-14.4,19.3-19.3c8.2-4.8,16.5-7.3,24.9-7.3c7,0,13.5,1.6,19.3,4.7c5.8,3.2,11,8.1,15.6,14.9
				L741.1,1067.7z M706.3,1076.6c-7.6,0-14.8,1.8-21.3,5.5c-6.6,3.7-11.7,8.6-15.2,14.9c-3.6,6.2-5.4,13.3-5.4,21
				c0,8.9,2.8,16.1,8.5,21.6c5.7,5.5,13.4,8.2,22.9,8.2c11.6,0,21.3-3.8,28.9-11.4c7.7-7.6,11.5-17.2,11.5-28.8
				c0-10.1-3.1-17.8-9.4-23.1C720.6,1079.3,713.8,1076.6,706.3,1076.6L706.3,1076.6z M838.9,1067.7h11.8l18.6,64.5l34-64.5h2.3
				l20.8,65.1l33.5-65.1h12.7l-46.9,91.3h-2.9l-20.9-64.5l-34,64.5h-2.6L838.9,1067.7L838.9,1067.7z M1018.4,1032.5h11.4l-6.7,49.5
				c9.5-11,20.3-16.5,32.4-16.5c9.3,0,16.8,2.9,22.7,8.6c5.9,5.7,8.8,13.2,8.8,22.4c0,5.1-0.6,11.9-1.7,20.6l-5.7,41.9h-11.4
				l5.6-41.9c1.1-8.4,1.7-15.1,1.5-20.1c0-6.2-2-11.3-5.9-15.1c-3.9-3.8-9.1-5.8-15.5-5.8c-6,0-11.6,1.6-16.9,4.7
				c-5.3,3.2-9.4,7.4-12.3,12.8c-2.9,5.4-5.1,14-6.7,25.8l-5.4,39.5h-11.4L1018.4,1032.5L1018.4,1032.5z M1218.3,1159h-11.8
				l1.8-13.8c-10.6,10.7-22.7,16-36.3,16c-12.3,0-22.5-4-30.5-12c-8-8-11.9-18.2-11.9-30.8c0-14.5,5.2-27,15.6-37.4
				c10.4-10.4,22.6-15.6,36.7-15.6c7.6,0,14.3,1.6,20,4.7c5.7,3.2,10.5,8.1,14.4,14.8l2.3-17.3h12L1218.3,1159L1218.3,1159z
				 M1173.5,1150.5c7.5,0,14.4-1.8,20.5-5.3c6.2-3.5,11.1-8.6,14.7-15.3c3.6-6.6,5.4-13.9,5.4-21.7c0-9.4-3-17.1-8.9-23
				c-6-5.9-13.7-8.9-23.2-8.9c-11.2,0-20.7,4-28.7,12.1c-8,8.1-11.9,18-11.9,29.8c0,9.6,3,17.4,8.9,23.4S1164,1150.5,1173.5,1150.5
				L1173.5,1150.5z M1294.1,1033.5h11.6l-4.6,34.2h18.3l-1.3,10.3h-18.4l-10.8,80.9h-11.7l10.9-80.9h-15.6l1.4-10.3h15.6
				L1294.1,1033.5L1294.1,1033.5z M1397.7,1067.7h11.8l18.6,64.5l34-64.5h2.3l20.8,65.1l33.5-65.1h12.7l-46.9,91.3h-2.9l-20.9-64.5
				l-34,64.5h-2.6L1397.7,1067.7L1397.7,1067.7z M1613.7,1065.5c7.8,0,15,1.9,21.4,5.5c6.5,3.7,11.6,8.9,15.2,15.5
				c3.6,6.6,5.5,14.1,5.5,22.5c0,9.5-2.3,18.4-7,26.6c-4.7,8.2-10.9,14.5-18.8,18.9c-7.8,4.5-16.7,6.7-26.6,6.7
				c-12.3,0-22.4-4-30.3-12c-7.9-8-11.9-18.2-11.9-30.6c0-9.7,2.3-18.6,7-26.9c4.7-8.2,11-14.6,19.1-19.3
				C1595.5,1067.8,1604.3,1065.5,1613.7,1065.5L1613.7,1065.5z M1613.5,1076.6c-7.3,0-14.1,1.8-20.6,5.4
				c-6.4,3.6-11.3,8.6-14.8,14.9c-3.5,6.4-5.2,13.3-5.2,21c0,9.6,3,17.4,8.9,23.4c6,6,13.6,9,23.1,9c7.3,0,14-1.7,20-5.2
				c6-3.5,10.7-8.5,14.3-15.1c3.5-6.6,5.3-13.6,5.3-21.2c0-6.3-1.3-11.9-3.9-16.8c-2.6-4.9-6.4-8.7-11.2-11.4
				C1624.5,1078,1619.3,1076.6,1613.5,1076.6L1613.5,1076.6z M1702.2,1067.7h11.6l-1.5,11.4c3.1-4.3,7-7.6,11.4-10
				c4.5-2.4,9-3.6,13.7-3.6c3.3,0,6.8,0.8,10.4,2.3l-5.5,10.7c-2.9-1.2-5.4-1.7-7.4-1.7c-4.1,0-8.2,1.4-12.2,4.2
				c-4,2.8-7.3,7-9.8,12.4c-2.5,5.4-4.6,14.4-6.3,26.9l-5.3,38.7h-11.4L1702.2,1067.7L1702.2,1067.7z M1785.4,1032.5h11.6l-9.2,68.9
				l43.9-33.7h18.6l-53.1,40.7l46.7,50.5h-15.8l-41.9-45.3l-6.1,45.3h-11.7L1785.4,1032.5z M1931.5,1078l-6.4,9.4
				c-5.2-7.3-11.3-11-18.4-11c-4,0-7.5,1.3-10.4,3.9c-2.9,2.6-4.3,5.5-4.3,8.7c0,2.5,0.9,4.8,2.6,7c1.7,2.2,5.5,5.3,11.5,9.1
				c8.8,5.6,14.5,10.5,17.3,14.7c2.7,4.2,4.1,9.1,4.1,14.6c0,7.6-2.7,14-8,19c-5.4,5-12.3,7.5-20.9,7.5c-11.3,0-20.8-5-28.6-15
				l7.2-8.3c6.8,8.2,14.1,12.3,22.1,12.3c4.5,0,8.5-1.6,11.8-4.8c3.4-3.2,5-6.9,5-11c0-3.4-1.3-6.7-3.8-9.8c-1.6-2-6-5.4-13.1-10.1
				c-7.7-5.2-12.7-9.5-15.1-13c-2.4-3.4-3.5-7.3-3.5-11.6c0-6.8,2.5-12.5,7.6-17.3c5.1-4.8,11.5-7.1,19.3-7.1
				c4.6,0,8.8,0.9,12.5,2.8C1923.9,1070.1,1927.7,1073.3,1931.5,1078L1931.5,1078z"/>
		</g>
		<g>
			<path class="st7" d="M1044.2-112.5h-25.5"/>
		</g>
	</g>
</g>
</svg>
